<?xml version="1.0" encoding="UTF-8"?>
<svg version="1.1" xmlns="http://www.w3.org/2000/svg" width="66" height="61">
<path d="M0 0 C21.78 0 43.56 0 66 0 C66 20.13 66 40.26 66 61 C44.22 61 22.44 61 0 61 C0 40.87 0 20.74 0 0 Z " fill="#E2E5EA" transform="translate(0,0)"/>
<path d="M0 0 C3.10474234 0.30694459 6.20866586 0.621514 9.3125 0.9375 C10.63411133 1.06801758 10.63411133 1.06801758 11.98242188 1.20117188 C12.82998047 1.28818359 13.67753906 1.37519531 14.55078125 1.46484375 C15.33106689 1.543396 16.11135254 1.62194824 16.9152832 1.70288086 C19 2 19 2 22 3 C21.67 8.61 21.34 14.22 21 20 C24.96 19.505 24.96 19.505 29 19 C28.67 22.3 28.34 25.6 28 29 C29.32 29 30.64 29 32 29 C31.67 33.62 31.34 38.24 31 43 C36.61 31.78 42.22 20.56 48 9 C46.02 8.34 44.04 7.68 42 7 C42 5.68 42 4.36 42 3 C54.48519362 -0.44419134 54.48519362 -0.44419134 61 0 C60.30892397 3.70940331 58.70180226 6.59711409 56.8671875 9.875 C55.90425781 11.60169922 55.90425781 11.60169922 54.921875 13.36328125 C54.23959823 14.57552922 53.55730651 15.78776877 52.875 17 C52.21574253 18.18076449 51.55688478 19.36175226 50.8984375 20.54296875 C47.18217011 27.19474702 43.39080552 33.79909409 39.5168457 40.3605957 C37.6354466 43.63434521 35.91430808 46.97294188 34.23828125 50.35546875 C32.66245449 52.44828599 31.50025349 52.48343969 29 53 C28.70867188 52.46745605 28.41734375 51.93491211 28.1171875 51.38623047 C16.95080922 30.92145361 16.95080922 30.92145361 5.03125 10.890625 C4 9 4 9 4 7 C3.34 7 2.68 7 2 7 C1.34 4.69 0.68 2.38 0 0 Z " fill="#9177F8" transform="translate(1,8)"/>
<path d="M0 0 C-0.66666667 4.66666667 -1.33333333 9.33333333 -2 14 C0.97 14.495 0.97 14.495 4 15 C-1.66208973 27.19424053 -7.59680137 39.17754579 -14 51 C-15.03198323 47.3863669 -14.81192462 44.9530393 -14.0625 41.25 C-13.86785156 40.26515625 -13.67320313 39.2803125 -13.47265625 38.265625 C-13.31667969 37.51796875 -13.16070312 36.7703125 -13 36 C-14.32 36 -15.64 36 -17 36 C-17.125 29.375 -17.125 29.375 -16 26 C-19.96 26.495 -19.96 26.495 -24 27 C-23.67 19.41 -23.34 11.82 -23 4 C-19.761875 3.34 -16.52375 2.68 -13.1875 2 C-12.17067139 1.79117187 -11.15384277 1.58234375 -10.10620117 1.3671875 C-8.89927612 1.12355469 -8.89927612 1.12355469 -7.66796875 0.875 C-6.84578857 0.70742188 -6.0236084 0.53984375 -5.17651367 0.3671875 C-3 0 -3 0 0 0 Z " fill="#FDC825" transform="translate(46,1)"/>
<path d="M0 0 C3.56662113 3.19244436 5.75592212 6.77088995 8 10.9375 C8.77880212 12.35609839 9.55881834 13.77403071 10.33984375 15.19140625 C10.75991699 15.95598145 11.17999023 16.72055664 11.61279297 17.50830078 C13.13305281 20.23898926 14.68925796 22.94685381 16.25390625 25.65234375 C17.07665039 27.0765564 17.07665039 27.0765564 17.91601562 28.52954102 C19.00441999 30.41052453 20.0955212 32.2899504 21.18945312 34.16772461 C21.68509766 35.02760986 22.18074219 35.88749512 22.69140625 36.7734375 C23.13685791 37.54091309 23.58230957 38.30838867 24.04125977 39.09912109 C25 41 25 41 25 43 C16.42 43 7.84 43 -1 43 C-1 40.36 -1 37.72 -1 35 C-1.99 35 -2.98 35 -4 35 C-4 31.37 -4 27.74 -4 24 C-3.01 24 -2.02 24 -1 24 C-1 21.36 -1 18.72 -1 16 C-1.99 16 -2.98 16 -4 16 C-4 12.37 -4 8.74 -4 5 C-3.01 5 -2.02 5 -1 5 C-0.67 3.35 -0.34 1.7 0 0 Z " fill="#FDFCFD" transform="translate(5,18)"/>
<path d="M0 0 C0.99 0.66 1.98 1.32 3 2 C3 3.32 3 4.64 3 6 C2.01 6 1.02 6 0 6 C0 8.97 0 11.94 0 15 C2.97 15 5.94 15 9 15 C9.09765625 21.93359375 9.09765625 21.93359375 9 24 C8 25 8 25 6.15234375 25.09765625 C4.1015625 25.06510417 2.05078125 25.03255208 0 25 C0 27.97 0 30.94 0 34 C2.64 34 5.28 34 8 34 C8 34.33 8 34.66 8 35 C5.36 35 2.72 35 0 35 C0 37.64 0 40.28 0 43 C-0.33 43 -0.66 43 -1 43 C-1 40.36 -1 37.72 -1 35 C-1.99 35 -2.98 35 -4 35 C-4 31.37 -4 27.74 -4 24 C-3.01 24 -2.02 24 -1 24 C-1 21.36 -1 18.72 -1 16 C-1.99 16 -2.98 16 -4 16 C-4 12.37 -4 8.74 -4 5 C-3.01 5 -2.02 5 -1 5 C-0.67 3.35 -0.34 1.7 0 0 Z " fill="#F1F2F3" transform="translate(5,18)"/>
<path d="M0 0 C0.33 0 0.66 0 1 0 C1 15.18 1 30.36 1 46 C0.67 46 0.34 46 0 46 C0 43.36 0 40.72 0 38 C-1.7015625 38.0309375 -1.7015625 38.0309375 -3.4375 38.0625 C-7 38 -7 38 -8 37 C-8.07179964 35.48071962 -8.08392007 33.95832518 -8.0625 32.4375 C-8.05347656 31.61121094 -8.04445312 30.78492187 -8.03515625 29.93359375 C-8.02355469 29.29550781 -8.01195312 28.65742187 -8 28 C-5.29120665 26.64560332 -2.99066732 26.93498549 0 27 C0 24.36 0 21.72 0 19 C-1.7015625 19.0309375 -1.7015625 19.0309375 -3.4375 19.0625 C-7 19 -7 19 -8 18 C-8.4626087 11.75478261 -8.4626087 11.75478261 -6.8125 9.0625 C-4.43958382 7.67148017 -2.70313576 7.78082683 0 8 C0 5.36 0 2.72 0 0 Z " fill="#EFF0F0" transform="translate(61,15)"/>
<path d="M0 0 C3.25048942 3.84348411 5.78782869 7.82398529 8.25 12.1875 C8.61351562 12.81591797 8.97703125 13.44433594 9.3515625 14.09179688 C12 18.74647556 12 18.74647556 12 21 C10.35 21 8.7 21 7 21 C7.020625 22.299375 7.04125 23.59875 7.0625 24.9375 C7.08399454 26.29165633 7.07148199 27.64756083 7 29 C6 30 6 30 3.93359375 30.09765625 C0.46679688 30.04882812 0.46679688 30.04882812 -3 30 C-3 27.03 -3 24.06 -3 21 C0.96 20.505 0.96 20.505 5 20 C5.495 15.545 5.495 15.545 6 11 C3.03 11 0.06 11 -3 11 C-3 8.03 -3 5.06 -3 2 C-2.01 2 -1.02 2 0 2 C0 1.34 0 0.68 0 0 Z " fill="#E3E4E7" transform="translate(8,22)"/>
<path d="M0 0 C3.3 0 6.6 0 10 0 C10 0.99 10 1.98 10 3 C12.64 3 15.28 3 18 3 C18 2.01 18 1.02 18 0 C21.3 0 24.6 0 28 0 C27.67 0.99 27.34 1.98 27 3 C22.545 3.495 22.545 3.495 18 4 C18 5.98 18 7.96 18 10 C15.03 9.67 12.06 9.34 9 9 C9 7.35 9 5.7 9 4 C6.03 4 3.06 4 0 4 C0 4.66 0 5.32 0 6 C-0.99 6 -1.98 6 -3 6 C-3 5.34 -3 4.68 -3 4 C-2.34 3.67 -1.68 3.34 -1 3 C-0.67 2.01 -0.34 1.02 0 0 Z " fill="#F5F7F7" transform="translate(5,1)"/>
<path d="M0 0 C7 8.20689655 7 8.20689655 7 13 C1.72 13 -3.56 13 -9 13 C-9 10.03 -9 7.06 -9 4 C-6.03 4 -3.06 4 0 4 C0 2.68 0 1.36 0 0 Z " fill="#E5E5E5" transform="translate(23,48)"/>
<path d="M0 0 C2.31 0 4.62 0 7 0 C7 0.99 7 1.98 7 3 C9.64 3 12.28 3 15 3 C15.33 2.01 15.66 1.02 16 0 C16 1.98 16 3.96 16 6 C10.06 7.32 4.12 8.64 -2 10 C-1.34 6.7 -0.68 3.4 0 0 Z " fill="#F1F1F1" transform="translate(46,1)"/>
<path d="M0 0 C0.66 0.66 1.32 1.32 2 2 C3.98821313 2.39764263 5.98944339 2.73775349 8 3 C8 5.97 8 8.94 8 12 C5.03 12 2.06 12 -1 12 C-2.42857143 3.42857143 -2.42857143 3.42857143 0 0 Z " fill="#E6E3E8" transform="translate(44,40)"/>
<path d="M0 0 C-0.33 2.31 -0.66 4.62 -1 7 C-1.33 5.68 -1.66 4.36 -2 3 C-2.90878906 3.2165625 -2.90878906 3.2165625 -3.8359375 3.4375 C-9.98654607 4.80009636 -15.71013545 5.24088843 -22 5 C-21.97679687 6.25296875 -21.95359375 7.5059375 -21.9296875 8.796875 C-21.91092573 10.4479107 -21.89272597 12.09895285 -21.875 13.75 C-21.84986328 14.9875 -21.84986328 14.9875 -21.82421875 16.25 C-21.81777344 17.04921875 -21.81132812 17.8484375 -21.8046875 18.671875 C-21.79421387 19.4050293 -21.78374023 20.13818359 -21.77294922 20.89355469 C-22 23 -22 23 -24 27 C-23.67 19.41 -23.34 11.82 -23 4 C-19.761875 3.34 -16.52375 2.68 -13.1875 2 C-12.17067139 1.79117187 -11.15384277 1.58234375 -10.10620117 1.3671875 C-8.89927612 1.12355469 -8.89927612 1.12355469 -7.66796875 0.875 C-6.84578857 0.70742188 -6.0236084 0.53984375 -5.17651367 0.3671875 C-3 0 -3 0 0 0 Z " fill="#F4DA61" transform="translate(46,1)"/>
<path d="M0 0 C2.05078125 0.03255208 4.1015625 0.06510417 6.15234375 0.09765625 C6.15234375 3.06765625 6.15234375 6.03765625 6.15234375 9.09765625 C3.08344188 10.63210719 0.45140109 9.64749914 -2.84765625 9.09765625 C-2.9453125 2.9453125 -2.9453125 2.9453125 -2.84765625 1.09765625 C-1.84765625 0.09765625 -1.84765625 0.09765625 0 0 Z " fill="#FDFDFD" transform="translate(7.84765625,32.90234375)"/>
<path d="M0 0 C2.97 0 5.94 0 9 0 C9 2.64 9 5.28 9 8 C6.03 8 3.06 8 0 8 C0 5.36 0 2.72 0 0 Z " fill="#FDFDFD" transform="translate(43,53)"/>
<path d="M0 0 C2.64 0 5.28 0 8 0 C8 2.97 8 5.94 8 9 C5.36 9 2.72 9 0 9 C0 6.03 0 3.06 0 0 Z " fill="#FDFDFD" transform="translate(53,43)"/>
<path d="M0 0 C0 2.97 0 5.94 0 9 C-2.64 9 -5.28 9 -8 9 C-8.1875 5.625 -8.1875 5.625 -8 2 C-4.77208445 -0.1519437 -3.71599191 -0.20086443 0 0 Z " fill="#FEFDFE" transform="translate(61,24)"/>
<path d="M0 0 C2.64 0 5.28 0 8 0 C8 2.64 8 5.28 8 8 C5.36 8 2.72 8 0 8 C0 5.36 0 2.72 0 0 Z " fill="#E5E5E5" transform="translate(53,53)"/>
<path d="M0 0 C2.64 0 5.28 0 8 0 C8 2.64 8 5.28 8 8 C5.36 8 2.72 8 0 8 C0 5.36 0 2.72 0 0 Z " fill="#E5E5E5" transform="translate(53,34)"/>
<path d="M0 0 C0.33 0.66 0.66 1.32 1 2 C1.99 2 2.98 2 4 2 C4 4.64 4 7.28 4 10 C1.03 10 -1.94 10 -5 10 C-3.35 6.7 -1.7 3.4 0 0 Z " fill="#E3DEE6" transform="translate(38,51)"/>
<path d="M0 0 C0.09765625 6.15234375 0.09765625 6.15234375 0 8 C-1 9 -1 9 -3.5625 9.0625 C-4.366875 9.041875 -5.17125 9.02125 -6 9 C-6.89674777 6.48910624 -7.13172674 5.35464891 -6.1875 2.8125 C-4.36135679 0.02522878 -3.33103737 0 0 0 Z " fill="#FAF6FD" transform="translate(52,34)"/>
<path d="M0 0 C2.31 0 4.62 0 7 0 C7 0.99 7 1.98 7 3 C7.99 3.33 8.98 3.66 10 4 C6.37 4.66 2.74 5.32 -1 6 C-0.67 4.02 -0.34 2.04 0 0 Z " fill="#DFDEE4" transform="translate(45,5)"/>
<path d="M0 0 C0.99 0 1.98 0 3 0 C6 5.75 6 5.75 6 8 C4.02 8 2.04 8 0 8 C0 5.36 0 2.72 0 0 Z " fill="#FAF3FD" transform="translate(24,53)"/>
<path d="M0 0 C0.99 1.32 1.98 2.64 3 4 C2.01 4.495 2.01 4.495 1 5 C1 7.64 1 10.28 1 13 C0.67 13 0.34 13 0 13 C0 10.36 0 7.72 0 5 C-2.64 5 -5.28 5 -8 5 C-8 7.64 -8 10.28 -8 13 C-8.33 13 -8.66 13 -9 13 C-9 10.03 -9 7.06 -9 4 C-6.03 4 -3.06 4 0 4 C0 2.68 0 1.36 0 0 Z " fill="#EDE9F0" transform="translate(23,48)"/>
<path d="M0 0 C0.66 0 1.32 0 2 0 C2 2.31 2 4.62 2 7 C2.66 7 3.32 7 4 7 C2.81323934 11.10801767 2.10551666 12.89448334 -1 16 C-0.67 10.72 -0.34 5.44 0 0 Z " fill="#E99143" transform="translate(32,36)"/>
<path d="M0 0 C0.99 0 1.98 0 3 0 C3 2.97 3 5.94 3 9 C2.01 9 1.02 9 0 9 C0 6.03 0 3.06 0 0 Z " fill="#FBFCFC" transform="translate(1,43)"/>
<path d="M0 0 C0.99 0 1.98 0 3 0 C3 2.97 3 5.94 3 9 C2.01 9 1.02 9 0 9 C0 6.03 0 3.06 0 0 Z " fill="#FCFCFC" transform="translate(1,24)"/>
<path d="M0 0 C2.97 0 5.94 0 9 0 C8.67 1.32 8.34 2.64 8 4 C5.69 3.67 3.38 3.34 1 3 C0.67 2.01 0.34 1.02 0 0 Z " fill="#E4E6E7" transform="translate(5,5)"/>
<path d="M0 0 C2.97 0 5.94 0 9 0 C9 0.99 9 1.98 9 3 C6.03 3 3.06 3 0 3 C0 2.01 0 1.02 0 0 Z " fill="#FDFDFD" transform="translate(5,1)"/>
<path d="M0 0 C2.97 0 5.94 0 9 0 C8.67 0.99 8.34 1.98 8 3 C5.36 3 2.72 3 0 3 C0 2.01 0 1.02 0 0 Z " fill="#FEFCF4" transform="translate(24,1)"/>
<path d="M0 0 C2.32472205 2.85306797 3.7508258 5.54074837 5 9 C3.35 8.67 1.7 8.34 0 8 C0 5.36 0 2.72 0 0 Z " fill="#DEDBE8" transform="translate(15,34)"/>
<path d="M0 0 C0.33 0 0.66 0 1 0 C1 2.64 1 5.28 1 8 C2.32 8.33 3.64 8.66 5 9 C3.68 9 2.36 9 1 9 C1 11.64 1 14.28 1 17 C0.67 17 0.34 17 0 17 C-0.89316269 11.06390334 -0.97040422 5.93024803 0 0 Z " fill="#F1F1F1" transform="translate(14,34)"/>
<path d="M0 0 C2.64 0 5.28 0 8 0 C8 0.66 8 1.32 8 2 C5.29120665 3.35439668 2.99066732 3.06501451 0 3 C0 2.01 0 1.02 0 0 Z " fill="#FAFAFD" transform="translate(53,5)"/>
<path d="M0 0 C0.33 0 0.66 0 1 0 C1 2.31 1 4.62 1 7 C-0.65 7.66 -2.3 8.32 -4 9 C-2.80100302 5.9168649 -1.52299523 2.93720508 0 0 Z " fill="#E5D7F1" transform="translate(52,26)"/>
<path d="M0 0 C0.66 0 1.32 0 2 0 C2 1.98 2 3.96 2 6 C0.68 6 -0.64 6 -2 6 C-1.34 4.02 -0.68 2.04 0 0 Z " fill="#F6EDFB" transform="translate(41,46)"/>
<path d="M0 0 C1.98 0 3.96 0 6 0 C6 0.99 6 1.98 6 3 C4.02 3 2.04 3 0 3 C0 2.01 0 1.02 0 0 Z " fill="#FEFDF9" transform="translate(46,1)"/>
<path d="M0 0 C0.33 0 0.66 0 1 0 C1.66 3.3 2.32 6.6 3 10 C2.01 10 1.02 10 0 10 C0 6.7 0 3.4 0 0 Z " fill="#DEEAF1" transform="translate(0,4)"/>
</svg>
