<?xml version="1.0" encoding="UTF-8"?>
<svg version="1.1" xmlns="http://www.w3.org/2000/svg" width="44" height="38">
<path d="M0 0 C14.52 0 29.04 0 44 0 C44 12.54 44 25.08 44 38 C29.48 38 14.96 38 0 38 C0 25.46 0 12.92 0 0 Z " fill="#FCFCFC" transform="translate(0,0)"/>
<path d="M0 0 C14.52 0 29.04 0 44 0 C44 12.54 44 25.08 44 38 C29.48 38 14.96 38 0 38 C0 25.46 0 12.92 0 0 Z M4 3 C3.979375 8.259375 3.95875 13.51875 3.9375 18.9375 C3.928396 20.599021 3.91929199 22.26054199 3.90991211 23.97241211 C3.90741455 25.26928955 3.90491699 26.56616699 3.90234375 27.90234375 C3.89722778 28.58816528 3.89211182 29.27398682 3.88684082 29.98059082 C3.88652946 31.65415231 3.93777163 33.3275958 4 35 C5.7329298 36.7329298 7.96214336 36.12820046 10.27148438 36.13894653 C11.00689453 36.1369223 11.74230469 36.13489807 12.5 36.1328125 C13.62631836 36.13424759 13.62631836 36.13424759 14.77539062 36.13571167 C16.36588627 36.13639338 17.95638467 36.13453972 19.546875 36.13037109 C21.98964655 36.12502267 24.43223421 36.13031634 26.875 36.13671875 C28.41666707 36.13605797 29.95833403 36.1347768 31.5 36.1328125 C32.23541016 36.13483673 32.97082031 36.13686096 33.72851562 36.13894653 C37.15246342 36.43056513 37.15246342 36.43056513 40 35 C40.08838648 32.62458949 40.11537523 30.2776642 40.09765625 27.90234375 C40.09515869 26.60546631 40.09266113 25.30858887 40.09008789 23.97241211 C40.08098389 22.31089111 40.07187988 20.64937012 40.0625 18.9375 C40.041875 13.678125 40.02125 8.41875 40 3 C28.12 3 16.24 3 4 3 Z " fill="#F6F8FA" transform="translate(0,0)"/>
<path d="M0 0 C11.88 0 23.76 0 36 0 C36.020625 5.259375 36.04125 10.51875 36.0625 15.9375 C36.071604 17.599021 36.08070801 19.26054199 36.09008789 20.97241211 C36.09258545 22.26928955 36.09508301 23.56616699 36.09765625 24.90234375 C36.10277222 25.58816528 36.10788818 26.27398682 36.11315918 26.98059082 C36.11347054 28.65415231 36.06222837 30.3275958 36 32 C34.2670702 33.7329298 32.03785664 33.12820046 29.72851562 33.13894653 C28.99310547 33.1369223 28.25769531 33.13489807 27.5 33.1328125 C26.74912109 33.13376923 25.99824219 33.13472595 25.22460938 33.13571167 C23.63411373 33.13639338 22.04361533 33.13453972 20.453125 33.13037109 C18.01035345 33.12502267 15.56776579 33.13031634 13.125 33.13671875 C11.58333293 33.13605797 10.04166597 33.1347768 8.5 33.1328125 C7.76458984 33.13483673 7.02917969 33.13686096 6.27148438 33.13894653 C1.11495161 33.11495161 1.11495161 33.11495161 0 32 C-0.08838648 29.62458949 -0.11537523 27.2776642 -0.09765625 24.90234375 C-0.09515869 23.60546631 -0.09266113 22.30858887 -0.09008789 20.97241211 C-0.08098389 19.31089111 -0.07187988 17.64937012 -0.0625 15.9375 C-0.041875 10.678125 -0.02125 5.41875 0 0 Z M2 2 C2 11.9 2 21.8 2 32 C6.39663033 32.02291238 10.79305488 32.04283833 15.18969727 32.05493164 C16.68644918 32.05997121 18.18319616 32.06680287 19.67993164 32.07543945 C21.82699807 32.08752159 23.97399962 32.09323191 26.12109375 32.09765625 C27.4145874 32.10289307 28.70808105 32.10812988 30.04077148 32.11352539 C32.88652404 32.33996932 32.88652404 32.33996932 34 31 C34.09993532 28.9394469 34.13080906 26.8754741 34.1328125 24.8125 C34.13410156 23.55695312 34.13539062 22.30140625 34.13671875 21.0078125 C34.13462402 20.35071289 34.1325293 19.69361328 34.13037109 19.01660156 C34.12502234 17.00838665 34.13031691 15.00039541 34.13671875 12.9921875 C34.13542969 11.73664062 34.13414063 10.48109375 34.1328125 9.1875 C34.13112061 7.44533203 34.13112061 7.44533203 34.12939453 5.66796875 C34.30337474 3.07936716 34.30337474 3.07936716 33 2 C30.70848583 1.91209025 28.41427476 1.89305962 26.12109375 1.90234375 C25.4344313 1.9037587 24.74776886 1.90517365 24.04029846 1.90663147 C21.83932199 1.91224521 19.63844591 1.92479993 17.4375 1.9375 C15.94856917 1.94251324 14.45963676 1.94707645 12.97070312 1.95117188 C9.31373195 1.96136979 5.65697883 1.98094221 2 2 Z " fill="#DCE1E5" transform="translate(4,3)"/>
<path d="M0 0 C0 5.61 0 11.22 0 17 C-1.32 17 -2.64 17 -4 17 C-4.33 14.69 -4.66 12.38 -5 10 C-5.7425 10.680625 -6.485 11.36125 -7.25 12.0625 C-10 14 -10 14 -12.125 13.9375 C-14.19561593 12.90219203 -15.48695959 11.73999647 -17 10 C-17.33 12.31 -17.66 14.62 -18 17 C-19.32 17 -20.64 17 -22 17 C-22 11.72 -22 6.44 -22 1 C-17.96255494 3.01872253 -15.37989325 5.08100128 -12 8 C-9.01118575 6.64084827 -6.7514807 5.06532106 -4.3125 2.875 C-1.10047847 0 -1.10047847 0 0 0 Z " fill="#1C1C1C" transform="translate(33,12)"/>
</svg>
