<?xml version="1.0" encoding="UTF-8"?>
<svg version="1.1" xmlns="http://www.w3.org/2000/svg" width="53" height="51">
<path d="M0 0 C17.49 0 34.98 0 53 0 C53 16.83 53 33.66 53 51 C35.51 51 18.02 51 0 51 C0 34.17 0 17.34 0 0 Z " fill="#E4E6E9" transform="translate(0,0)"/>
<path d="M0 0 C0.66209473 -0.00095673 1.32418945 -0.00191345 2.00634766 -0.00289917 C3.40852961 -0.00358076 4.8107147 -0.00172792 6.21289062 0.00244141 C8.36595713 0.00779004 10.51881502 0.0024958 12.671875 -0.00390625 C14.03125046 -0.00324546 15.3906258 -0.00196429 16.75 0 C18.61785156 0.00169189 18.61785156 0.00169189 20.5234375 0.00341797 C23.375 0.1328125 23.375 0.1328125 24.375 1.1328125 C24.47432153 2.82839976 24.50580007 4.52806997 24.5078125 6.2265625 C24.50974609 7.77150391 24.50974609 7.77150391 24.51171875 9.34765625 C24.50785156 10.43175781 24.50398438 11.51585937 24.5 12.6328125 C24.50580078 14.25896484 24.50580078 14.25896484 24.51171875 15.91796875 C24.51042969 16.94792969 24.50914063 17.97789063 24.5078125 19.0390625 C24.50668457 19.99103516 24.50555664 20.94300781 24.50439453 21.92382812 C24.375 24.1328125 24.375 24.1328125 23.375 25.1328125 C21.15644736 25.22064792 18.93511504 25.23975859 16.71484375 25.23046875 C15.71814415 25.22834633 15.71814415 25.22834633 14.7013092 25.22618103 C12.57166101 25.22056768 10.44211661 25.20801304 8.3125 25.1953125 C6.87174631 25.19029921 5.43099097 25.18573601 3.99023438 25.18164062 C0.45178898 25.17059395 -3.08659539 25.15332042 -6.625 25.1328125 C-7.86997833 22.64285585 -7.75434372 20.94286339 -7.7578125 18.16015625 C-7.75910156 17.17853516 -7.76039062 16.19691406 -7.76171875 15.18554688 C-7.75785156 14.15751953 -7.75398437 13.12949219 -7.75 12.0703125 C-7.75386719 11.03841797 -7.75773438 10.00652344 -7.76171875 8.94335938 C-7.76042969 7.96302734 -7.75914063 6.98269531 -7.7578125 5.97265625 C-7.75612061 4.61708618 -7.75612061 4.61708618 -7.75439453 3.23413086 C-7.47315612 -1.3330748 -3.79148901 0.00343432 0 0 Z " fill="#C3C3C3" transform="translate(16.625,11.8671875)"/>
<path d="M0 0 C17.49 0 34.98 0 53 0 C53 16.83 53 33.66 53 51 C35.51 51 18.02 51 0 51 C0 34.17 0 17.34 0 0 Z M1 1 C1 15.85 1 30.7 1 46 C4.44055062 46.68811012 6.93744403 47.12563179 10.31542969 47.12939453 C11.13267517 47.13254669 11.94992065 47.13569885 12.79193115 47.13894653 C13.65981262 47.1369223 14.52769409 47.13489807 15.421875 47.1328125 C16.77276215 47.13424759 16.77276215 47.13424759 18.15093994 47.13571167 C20.04707916 47.13639029 21.94322075 47.13455824 23.83935547 47.13037109 C26.75363306 47.1249933 29.66775828 47.13033964 32.58203125 47.13671875 C34.42447951 47.1360584 36.26692767 47.13477814 38.109375 47.1328125 C39.42334259 47.13584885 39.42334259 47.13584885 40.76385498 47.13894653 C44.69656287 47.51687029 44.69656287 47.51687029 48 46 C48.0928726 44.58774954 48.11746772 43.17091066 48.11352539 41.75561523 C48.11334412 40.38536194 48.11334412 40.38536194 48.11315918 38.98742676 C48.10804321 38.02091187 48.10292725 37.05439697 48.09765625 36.05859375 C48.09614563 34.73317566 48.09614563 34.73317566 48.09460449 33.38098145 C48.08935531 30.06647451 48.07539417 26.75198601 48.0625 23.4375 C48.041875 16.033125 48.02125 8.62875 48 1 C32.49 1 16.98 1 1 1 Z " fill="#F5F7F9" transform="translate(0,0)"/>
<path d="M0 0 C2.66006514 1.33003257 4.96786264 2.60761651 7.4375 4.1875 C10.69624139 6.16720167 10.69624139 6.16720167 13.4375 6.0625 C16.62455884 4.74103658 19.37497463 2.98591578 22.23046875 1.05859375 C24 0 24 0 26 0 C26 5.28 26 10.56 26 16 C17.42 16 8.84 16 0 16 C0 10.72 0 5.44 0 0 Z " fill="#F2F2F2" transform="translate(12,18)"/>
<path d="M0 0 C1.81455688 0.07069702 1.81455688 0.07069702 3.66577148 0.14282227 C5.62353516 0.21533203 5.62353516 0.21533203 7.62084961 0.28930664 C9.00952598 0.34583683 10.39819781 0.40247892 11.78686523 0.45922852 C13.17942544 0.51243399 14.5720035 0.56517448 15.96459961 0.61743164 C19.38472504 0.74760943 22.80459448 0.88259032 26.22436523 1.02172852 C26.22436523 3.66172852 26.22436523 6.30172852 26.22436523 9.02172852 C16.32436523 9.02172852 6.42436523 9.02172852 -3.77563477 9.02172852 C-3.77563477 0.02955682 -3.77563477 0.02955682 0 0 Z " fill="#E8E8E8" transform="translate(9.775634765625,35.978271484375)"/>
<path d="M0 0 C0 5.28 0 10.56 0 16 C-3.96 16 -7.92 16 -12 16 C-12.87703016 10.29930394 -12.87703016 10.29930394 -12 7 C-8.89698186 3.89698186 -4.58491493 0 0 0 Z " fill="#F3F3F3" transform="translate(38,18)"/>
<path d="M0 0 C0.80308594 0.01417969 1.60617188 0.02835937 2.43359375 0.04296875 C3.64208984 0.05263672 3.64208984 0.05263672 4.875 0.0625 C6.87109375 0.23046875 6.87109375 0.23046875 7.87109375 1.23046875 C9.36847499 1.32837445 10.87052267 1.36021739 12.37109375 1.35546875 C13.18578125 1.35804688 14.00046875 1.360625 14.83984375 1.36328125 C16.86639752 1.45498655 16.86639752 1.45498655 17.87109375 0.23046875 C19.39037413 0.15866911 20.91276857 0.14654868 22.43359375 0.16796875 C23.25988281 0.17699219 24.08617188 0.18601563 24.9375 0.1953125 C25.57558594 0.20691406 26.21367188 0.21851563 26.87109375 0.23046875 C26.54109375 1.22046875 26.21109375 2.21046875 25.87109375 3.23046875 C23.23109375 3.23046875 20.59109375 3.23046875 17.87109375 3.23046875 C17.87109375 4.55046875 17.87109375 5.87046875 17.87109375 7.23046875 C14.24109375 7.23046875 10.61109375 7.23046875 6.87109375 7.23046875 C6.87109375 5.91046875 6.87109375 4.59046875 6.87109375 3.23046875 C3.90109375 3.23046875 0.93109375 3.23046875 -2.12890625 3.23046875 C-2.12890625 6.20046875 -2.12890625 9.17046875 -2.12890625 12.23046875 C-2.78890625 12.23046875 -3.44890625 12.23046875 -4.12890625 12.23046875 C-4.18286103 10.60583033 -4.2216782 8.98068334 -4.25390625 7.35546875 C-4.27710938 6.45054688 -4.3003125 5.545625 -4.32421875 4.61328125 C-4.06373157 1.43533766 -3.21896897 0.34847554 0 0 Z " fill="#F4F4F4" transform="translate(8.12890625,3.76953125)"/>
<path d="M0 0 C7.92 0 15.84 0 24 0 C24 0.66 24 1.32 24 2 C21.98828125 3.54296875 21.98828125 3.54296875 19.3125 5.1875 C18.44238281 5.73792969 17.57226562 6.28835937 16.67578125 6.85546875 C13.48312959 8.22108472 12.25250653 8.10132341 9 7 C6.54296875 5.80859375 6.54296875 5.80859375 4.1875 4.4375 C3.39730469 3.98246094 2.60710938 3.52742188 1.79296875 3.05859375 C1.20128906 2.70925781 0.60960937 2.35992188 0 2 C0 1.34 0 0.68 0 0 Z " fill="#E0E0E0" transform="translate(13,14)"/>
<path d="M0 0 C1.52519276 0.08937803 3.04681929 0.24537146 4.5625 0.4375 C5.80193359 0.59025391 5.80193359 0.59025391 7.06640625 0.74609375 C7.70449219 0.82988281 8.34257812 0.91367187 9 1 C9 3.64 9 6.28 9 9 C5.7 9 2.4 9 -1 9 C-1.09765625 2.84765625 -1.09765625 2.84765625 -1 1 C-0.67 0.67 -0.34 0.34 0 0 Z " fill="#FBFBFB" transform="translate(7,36)"/>
<path d="M0 0 C3.3 0 6.6 0 10 0 C10 3.3 10 6.6 10 10 C8.68 10 7.36 10 6 10 C5.62875 9.0409375 5.62875 9.0409375 5.25 8.0625 C4.18437567 5.81258459 4.18437567 5.81258459 1.875 5.25 C1.25625 5.1675 0.6375 5.085 0 5 C0 3.35 0 1.7 0 0 Z " fill="#F9F9FA" transform="translate(35,6)"/>
<path d="M0 0 C2.97 0 5.94 0 9 0 C9 2.64 9 5.28 9 8 C6.03 8 3.06 8 0 8 C0 5.36 0 2.72 0 0 Z " fill="#E4E4E4" transform="translate(26,26)"/>
<path d="M0 0 C2.64 0 5.28 0 8 0 C8 1.32 8 2.64 8 4 C15.92 4 23.84 4 32 4 C32 4.33 32 4.66 32 5 C30.69796631 5.02187378 30.69796631 5.02187378 29.36962891 5.04418945 C26.15261121 5.10520111 22.93624337 5.17934391 19.71972656 5.26245117 C18.32693911 5.29572873 16.93401589 5.32375197 15.54101562 5.34643555 C13.54008622 5.37992689 11.53953079 5.43381305 9.5390625 5.48828125 C7.73236084 5.52755737 7.73236084 5.52755737 5.88916016 5.56762695 C4.45902588 5.78165161 4.45902588 5.78165161 3 6 C2.34 6.99 1.68 7.98 1 9 C0 8 0 8 -0.09765625 6.15234375 C-0.06510417 4.1015625 -0.03255208 2.05078125 0 0 Z " fill="#DDDDDD" transform="translate(7,7)"/>
<path d="M0 0 C2.97 0 5.94 0 9 0 C9 2.31 9 4.62 9 7 C6.03 7 3.06 7 0 7 C0 4.69 0 2.38 0 0 Z " fill="#FEFEFE" transform="translate(26,37)"/>
<path d="M0 0 C2.97 0 5.94 0 9 0 C9 2.31 9 4.62 9 7 C6.03 7 3.06 7 0 7 C0 4.69 0 2.38 0 0 Z " fill="#FDFDFD" transform="translate(16,26)"/>
<path d="M0 0 C3.3 0 6.6 0 10 0 C9.67 0.66 9.34 1.32 9 2 C6.93359375 2.4140625 6.93359375 2.4140625 4.4375 2.625 C3.61121094 2.69976562 2.78492188 2.77453125 1.93359375 2.8515625 C0.97646484 2.92503906 0.97646484 2.92503906 0 3 C0 2.01 0 1.02 0 0 Z M0 3 C0 4.65 0 6.3 0 8 C-2.97 8 -5.94 8 -9 8 C-9 6.68 -9 5.36 -9 4 C-1.125 3 -1.125 3 0 3 Z " fill="#E2E3E4" transform="translate(35,3)"/>
<path d="M0 0 C0.33 0 0.66 0 1 0 C1 4.62 1 9.24 1 14 C0.67 13.34 0.34 12.68 0 12 C-1.32 12 -2.64 12 -4 12 C-4 8.7 -4 5.4 -4 2 C-2.68 2 -1.36 2 0 2 C0 1.34 0 0.68 0 0 Z " fill="#E2E4E5" transform="translate(45,14)"/>
<path d="M0 0 C6.27 0 12.54 0 19 0 C19 0.66 19 1.32 19 2 C12.375 6 12.375 6 9 6 C8.67 4.68 8.34 3.36 8 2 C5.36 1.67 2.72 1.34 0 1 C0 0.67 0 0.34 0 0 Z " fill="#F0F0F0" transform="translate(16,15)"/>
<path d="M0 0 C0.66 0 1.32 0 2 0 C2 3.3 2 6.6 2 10 C1.01 10.495 1.01 10.495 0 11 C-0.46523063 12.89533342 -0.46523063 12.89533342 -0.625 15.0625 C-0.74875 16.361875 -0.8725 17.66125 -1 19 C-1.66 19 -2.32 19 -3 19 C-3.02689216 17.52093108 -3.04634621 16.04172517 -3.0625 14.5625 C-3.07410156 13.73878906 -3.08570313 12.91507813 -3.09765625 12.06640625 C-3 10 -3 10 -2 9 C-1.79395915 7.67218122 -1.6337041 6.33704105 -1.5 5 C-1.11111111 1.11111111 -1.11111111 1.11111111 0 0 Z " fill="#F6F6F6" transform="translate(7,16)"/>
<path d="M0 0 C1.32 0 2.64 0 4 0 C4 3.3 4 6.6 4 10 C2.68 10 1.36 10 0 10 C0 6.7 0 3.4 0 0 Z " fill="#F6F7F7" transform="translate(41,26)"/>
<path d="M0 0 C2.97 0 5.94 0 9 0 C9 1.32 9 2.64 9 4 C6.36 4 3.72 4 1 4 C0.67 2.68 0.34 1.36 0 0 Z " fill="#FCFCFC" transform="translate(16,7)"/>
<path d="M0 0 C0.99 0 1.98 0 3 0 C3.33 2.64 3.66 5.28 4 8 C2.68 8 1.36 8 0 8 C0 5.36 0 2.72 0 0 Z " fill="#E2E2E2" transform="translate(12,26)"/>
<path d="M0 0 C2.31 0 4.62 0 7 0 C7 0.66 7 1.32 7 2 C2.61538462 5 2.61538462 5 0 5 C0 3.35 0 1.7 0 0 Z " fill="#F8F8F8" transform="translate(26,16)"/>
<path d="M0 0 C0 1.65 0 3.3 0 5 C-1.98 5 -3.96 5 -6 5 C-4.87312259 1.61936778 -3.78825335 0 0 0 Z " fill="#FBFBFB" transform="translate(35,20)"/>
<path d="M0 0 C2.91517292 1.07401108 4.77810176 1.77810176 7 4 C4.69 4 2.38 4 0 4 C0 2.68 0 1.36 0 0 Z " fill="#E5E5E5" transform="translate(16,21)"/>
<path d="M0 0 C0 2.64 0 5.28 0 8 C-0.66 7.67 -1.32 7.34 -2 7 C-2 5.35 -2 3.7 -2 2 C-2.66 1.67 -3.32 1.34 -4 1 C-2 0 -2 0 0 0 Z " fill="#DFDFDF" transform="translate(38,18)"/>
</svg>
