<?xml version="1.0" encoding="UTF-8"?>
<!DOCTYPE svg PUBLIC "-//W3C//DTD SVG 1.1//EN" "http://www.w3.org/Graphics/SVG/1.1/DTD/svg11.dtd">
<svg xmlns="http://www.w3.org/2000/svg" version="1.1" width="46px" height="50px" style="shape-rendering:geometricPrecision; text-rendering:geometricPrecision; image-rendering:optimizeQuality; fill-rule:evenodd; clip-rule:evenodd" xmlns:xlink="http://www.w3.org/1999/xlink">
<g><path style="opacity:1" fill="#f5f8f9" d="M -0.5,-0.5 C 14.8333,-0.5 30.1667,-0.5 45.5,-0.5C 45.5,1.16667 45.5,2.83333 45.5,4.5C 30.1667,4.5 14.8333,4.5 -0.5,4.5C -0.5,2.83333 -0.5,1.16667 -0.5,-0.5 Z"/></g>
<g><path style="opacity:1" fill="#e9edef" d="M -0.5,4.5 C 14.8333,4.5 30.1667,4.5 45.5,4.5C 45.5,4.83333 45.5,5.16667 45.5,5.5C 43.5,5.5 41.5,5.5 39.5,5.5C 39.5,6.5 39.5,7.5 39.5,8.5C 41.1667,8.5 42.8333,8.5 44.5,8.5C 44.5,10.8333 44.5,13.1667 44.5,15.5C 42.8333,15.5 41.1667,15.5 39.5,15.5C 39.5,17.1667 39.5,18.8333 39.5,20.5C 38.2921,19.7659 36.9587,19.4326 35.5,19.5C 37.8713,6.52604 33.5379,3.52604 22.5,10.5C 12.614,3.37445 8.28064,5.70778 9.5,17.5C 5.97864,19.4515 2.97864,22.1182 0.5,25.5C 0.432553,26.9587 0.765886,28.2921 1.5,29.5C 1.773,34.9957 1.43966,40.6624 0.5,46.5C 4.16667,46.5 7.83333,46.5 11.5,46.5C 15.6726,46.5813 19.3393,45.248 22.5,42.5C 24.261,43.0351 25.5943,44.0351 26.5,45.5C 24.7078,46.3091 22.7078,46.8091 20.5,47C 28.8267,47.4997 37.16,47.6664 45.5,47.5C 45.5,48.1667 45.5,48.8333 45.5,49.5C 30.1667,49.5 14.8333,49.5 -0.5,49.5C -0.5,34.5 -0.5,19.5 -0.5,4.5 Z"/></g>
<g><path style="opacity:1" fill="#eff2f3" d="M 19.5,15.5 C 17.2151,16.9309 14.7151,17.9309 12,18.5C 11.5172,17.552 11.3505,16.552 11.5,15.5C 11.7861,7.01896 14.7861,6.18563 20.5,13C 19.7476,13.6708 19.4142,14.5041 19.5,15.5 Z"/></g>
<g><path style="opacity:1" fill="#49dbfb" d="M 35.5,19.5 C 34.8333,19.1667 34.1667,18.8333 33.5,18.5C 33.7839,15.2234 33.4505,12.0567 32.5,9C 28.8552,8.65788 26.1885,10.1579 24.5,13.5C 22.3023,13.4088 21.9689,14.0755 23.5,15.5C 21.9731,15.427 20.9731,16.0937 20.5,17.5C 19.6618,17.1583 19.3284,16.4916 19.5,15.5C 19.4142,14.5041 19.7476,13.6708 20.5,13C 14.7861,6.18563 11.7861,7.01896 11.5,15.5C 10.8333,16.1667 10.1667,16.8333 9.5,17.5C 8.28064,5.70778 12.614,3.37445 22.5,10.5C 33.5379,3.52604 37.8713,6.52604 35.5,19.5 Z"/></g>
<g><path style="opacity:1" fill="#f0f3f3" d="M 33.5,18.5 C 29.5207,18.3973 26.5207,16.7306 24.5,13.5C 26.1885,10.1579 28.8552,8.65788 32.5,9C 33.4505,12.0567 33.7839,15.2234 33.5,18.5 Z"/></g>
<g><path style="opacity:1" fill="#44dcfc" d="M 24.5,13.5 C 26.5207,16.7306 29.5207,18.3973 33.5,18.5C 34.1667,18.8333 34.8333,19.1667 35.5,19.5C 36.9587,19.4326 38.2921,19.7659 39.5,20.5C 40.1667,20.5 40.5,20.8333 40.5,21.5C 39.5084,21.3284 38.8417,21.6618 38.5,22.5C 36.4816,21.0674 34.8149,21.4008 33.5,23.5C 33.6716,22.5084 33.3382,21.8417 32.5,21.5C 31.8333,20.1667 31.1667,20.1667 30.5,21.5C 29.0755,19.9689 28.4088,20.3023 28.5,22.5C 27.7326,21.828 27.0659,20.9947 26.5,20C 23.8333,19.3333 21.1667,19.3333 18.5,20C 15.829,22.4573 14.829,25.2907 15.5,28.5C 14.6618,28.8417 14.3284,29.5084 14.5,30.5C 13.6236,30.3691 12.9569,30.7025 12.5,31.5C 13.2565,32.7733 13.9232,32.7733 14.5,31.5C 15.7514,32.472 15.418,33.1386 13.5,33.5C 12.2613,33.0576 11.2613,32.3909 10.5,31.5C 10.8769,29.742 11.5435,28.0754 12.5,26.5C 9.57283,20.312 6.23949,20.312 2.5,26.5C 1.83333,26.1667 1.16667,25.8333 0.5,25.5C 2.97864,22.1182 5.97864,19.4515 9.5,17.5C 10.1667,16.8333 10.8333,16.1667 11.5,15.5C 11.3505,16.552 11.5172,17.552 12,18.5C 14.7151,17.9309 17.2151,16.9309 19.5,15.5C 19.3284,16.4916 19.6618,17.1583 20.5,17.5C 21.8734,17.6567 23.2068,17.49 24.5,17C 23.944,16.6174 23.6107,16.1174 23.5,15.5C 21.9689,14.0755 22.3023,13.4088 24.5,13.5 Z"/></g>
<g><path style="opacity:1" fill="#def9fe" d="M 23.5,15.5 C 23.6107,16.1174 23.944,16.6174 24.5,17C 23.2068,17.49 21.8734,17.6567 20.5,17.5C 20.9731,16.0937 21.9731,15.427 23.5,15.5 Z"/></g>
<g><path style="opacity:1" fill="#f4f7f8" d="M 28.5,22.5 C 29.1534,23.8068 29.8201,25.1401 30.5,26.5C 29.0413,28.583 27.7079,30.7497 26.5,33C 21.2829,34.7612 17.6162,33.2612 15.5,28.5C 14.829,25.2907 15.829,22.4573 18.5,20C 21.1667,19.3333 23.8333,19.3333 26.5,20C 27.0659,20.9947 27.7326,21.828 28.5,22.5 Z"/></g>
<g><path style="opacity:1" fill="#e9eeef" d="M 32.5,21.5 C 31.8333,22.8333 31.1667,22.8333 30.5,21.5C 31.1667,20.1667 31.8333,20.1667 32.5,21.5 Z"/></g>
<g><path style="opacity:1" fill="#dfeef1" d="M 12.5,20.5 C 14.2252,20.8425 14.7252,21.8425 14,23.5C 12.9614,22.7562 12.4614,21.7562 12.5,20.5 Z"/></g>
<g><path style="opacity:1" fill="#eff2f2" d="M 10.5,31.5 C 6.85932,31.3484 4.19265,29.6818 2.5,26.5C 6.23949,20.312 9.57283,20.312 12.5,26.5C 11.5435,28.0754 10.8769,29.742 10.5,31.5 Z"/></g>
<g><path style="opacity:1" fill="#21d9fd" d="M 20.5,22.5 C 26.4877,22.664 27.821,25.164 24.5,30C 18.4034,30.1475 17.0701,27.6475 20.5,22.5 Z"/></g>
<g><path style="opacity:1" fill="#40dbfc" d="M 30.5,21.5 C 31.1667,22.8333 31.8333,22.8333 32.5,21.5C 33.3382,21.8417 33.6716,22.5084 33.5,23.5C 33.3289,32.8076 36.3289,33.8076 42.5,26.5C 41.4787,24.812 40.1454,23.4787 38.5,22.5C 38.8417,21.6618 39.5084,21.3284 40.5,21.5C 45.931,25.4997 45.5977,29.1664 39.5,32.5C 38.2921,33.2341 36.9587,33.5674 35.5,33.5C 37.3138,38.2801 36.6472,42.6134 33.5,46.5C 31.0971,46.552 28.7638,46.2186 26.5,45.5C 25.5943,44.0351 24.261,43.0351 22.5,42.5C 19.3393,45.248 15.6726,46.5813 11.5,46.5C 8.55718,43.0679 7.89052,39.2346 9.5,35C 6.63055,33.4037 3.96388,31.5703 1.5,29.5C 0.765886,28.2921 0.432553,26.9587 0.5,25.5C 1.16667,25.8333 1.83333,26.1667 2.5,26.5C 4.19265,29.6818 6.85932,31.3484 10.5,31.5C 11.2613,32.3909 12.2613,33.0576 13.5,33.5C 15.418,33.1386 15.7514,32.472 14.5,31.5C 14.5,31.1667 14.5,30.8333 14.5,30.5C 14.3284,29.5084 14.6618,28.8417 15.5,28.5C 17.6162,33.2612 21.2829,34.7612 26.5,33C 27.7079,30.7497 29.0413,28.583 30.5,26.5C 29.8201,25.1401 29.1534,23.8068 28.5,22.5C 28.4088,20.3023 29.0755,19.9689 30.5,21.5 Z"/></g>
<g><path style="opacity:1" fill="#e9eeef" d="M 38.5,22.5 C 40.1454,23.4787 41.4787,24.812 42.5,26.5C 36.3289,33.8076 33.3289,32.8076 33.5,23.5C 34.8149,21.4008 36.4816,21.0674 38.5,22.5 Z"/></g>
<g><path style="opacity:1" fill="#f2f8f8" d="M 14.5,30.5 C 14.5,30.8333 14.5,31.1667 14.5,31.5C 13.9232,32.7733 13.2565,32.7733 12.5,31.5C 12.9569,30.7025 13.6236,30.3691 14.5,30.5 Z"/></g>
<g><path style="opacity:1" fill="#e1e4e5" d="M 30.5,30.5 C 32.337,30.6395 32.6704,31.3061 31.5,32.5C 30.7025,32.0431 30.3691,31.3764 30.5,30.5 Z"/></g>
<g><path style="opacity:1" fill="#f3f5f5" d="M 39.5,32.5 C 40.9187,33.4511 42.5853,33.7845 44.5,33.5C 44.5,35.8333 44.5,38.1667 44.5,40.5C 42.8333,40.5 41.1667,40.5 39.5,40.5C 39.5,42.5 39.5,44.5 39.5,46.5C 37.5,46.5 35.5,46.5 33.5,46.5C 36.6472,42.6134 37.3138,38.2801 35.5,33.5C 36.9587,33.5674 38.2921,33.2341 39.5,32.5 Z"/></g>
<g><path style="opacity:1" fill="#d5e4e6" d="M 20.5,36.5 C 21.6009,35.4017 22.9343,35.235 24.5,36C 23.3181,37.7683 21.9848,37.9349 20.5,36.5 Z"/></g>
<g><path style="opacity:1" fill="#eff2f3" d="M 31.5,34.5 C 32.7647,35.5145 33.4313,37.0145 33.5,39C 33.3333,40.5 33.1667,42 33,43.5C 29.6595,44.433 26.8261,43.433 24.5,40.5C 25.6853,36.9693 28.0186,34.9693 31.5,34.5 Z"/></g>
<g><path style="opacity:1" fill="#f1f2f2" d="M 1.5,29.5 C 3.96388,31.5703 6.63055,33.4037 9.5,35C 7.89052,39.2346 8.55718,43.0679 11.5,46.5C 7.83333,46.5 4.16667,46.5 0.5,46.5C 1.43966,40.6624 1.773,34.9957 1.5,29.5 Z"/></g>
<g><path style="opacity:1" fill="#f0f2f2" d="M 11.5,34.5 C 15.9412,34.3809 18.9412,36.3809 20.5,40.5C 12.5498,46.9195 9.54982,44.9195 11.5,34.5 Z"/></g>
<g><path style="opacity:1" fill="#dde1e4" d="M 45.5,5.5 C 45.5,19.5 45.5,33.5 45.5,47.5C 37.16,47.6664 28.8267,47.4997 20.5,47C 22.7078,46.8091 24.7078,46.3091 26.5,45.5C 28.7638,46.2186 31.0971,46.552 33.5,46.5C 35.5,46.5 37.5,46.5 39.5,46.5C 39.5,44.5 39.5,42.5 39.5,40.5C 41.1667,40.5 42.8333,40.5 44.5,40.5C 44.5,38.1667 44.5,35.8333 44.5,33.5C 42.5853,33.7845 40.9187,33.4511 39.5,32.5C 45.5977,29.1664 45.931,25.4997 40.5,21.5C 40.5,20.8333 40.1667,20.5 39.5,20.5C 39.5,18.8333 39.5,17.1667 39.5,15.5C 41.1667,15.5 42.8333,15.5 44.5,15.5C 44.5,13.1667 44.5,10.8333 44.5,8.5C 42.8333,8.5 41.1667,8.5 39.5,8.5C 39.5,7.5 39.5,6.5 39.5,5.5C 41.5,5.5 43.5,5.5 45.5,5.5 Z"/></g>
</svg>
